<svg width="79" height="24" viewBox="0 0 79 24" fill="none" xmlns="http://www.w3.org/2000/svg">
<path d="M34.34 17.098C33.6587 17.098 33.0427 16.9813 32.492 16.748C31.9507 16.5147 31.5213 16.1787 31.204 15.74C30.8867 15.3013 30.7233 14.7833 30.714 14.186H32.814C32.842 14.5873 32.982 14.9047 33.234 15.138C33.4953 15.3713 33.85 15.488 34.298 15.488C34.7553 15.488 35.1147 15.3807 35.376 15.166C35.6373 14.942 35.768 14.6527 35.768 14.298C35.768 14.0087 35.6793 13.7707 35.502 13.584C35.3247 13.3973 35.1007 13.2527 34.83 13.15C34.5687 13.038 34.2047 12.9167 33.738 12.786C33.1033 12.5993 32.5853 12.4173 32.184 12.24C31.792 12.0533 31.4513 11.778 31.162 11.414C30.882 11.0407 30.742 10.546 30.742 9.93C30.742 9.35133 30.8867 8.84733 31.176 8.418C31.4653 7.98867 31.8713 7.662 32.394 7.438C32.9167 7.20467 33.514 7.088 34.186 7.088C35.194 7.088 36.0107 7.33533 36.636 7.83C37.2707 8.31533 37.6207 8.99667 37.686 9.874H35.53C35.5113 9.538 35.3667 9.26267 35.096 9.048C34.8347 8.824 34.4847 8.712 34.046 8.712C33.6633 8.712 33.3553 8.81 33.122 9.006C32.898 9.202 32.786 9.48667 32.786 9.86C32.786 10.1213 32.87 10.3407 33.038 10.518C33.2153 10.686 33.43 10.826 33.682 10.938C33.9433 11.0407 34.3073 11.162 34.774 11.302C35.4087 11.4887 35.9267 11.6753 36.328 11.862C36.7293 12.0487 37.0747 12.3287 37.364 12.702C37.6533 13.0753 37.798 13.5653 37.798 14.172C37.798 14.6947 37.6627 15.18 37.392 15.628C37.1213 16.076 36.7247 16.4353 36.202 16.706C35.6793 16.9673 35.0587 17.098 34.34 17.098ZM47.3233 7.228V17H45.3633V12.842H41.1773V17H39.2173V7.228H41.1773V11.246H45.3633V7.228H47.3233ZM53.5084 17.098C52.5937 17.098 51.7537 16.8833 50.9884 16.454C50.2231 16.0247 49.6164 15.432 49.1684 14.676C48.7204 13.9107 48.4964 13.0473 48.4964 12.086C48.4964 11.134 48.7204 10.28 49.1684 9.524C49.6164 8.75867 50.2231 8.16133 50.9884 7.732C51.7537 7.30267 52.5937 7.088 53.5084 7.088C54.4324 7.088 55.2724 7.30267 56.0284 7.732C56.7937 8.16133 57.3957 8.75867 57.8344 9.524C58.2824 10.28 58.5064 11.134 58.5064 12.086C58.5064 13.0473 58.2824 13.9107 57.8344 14.676C57.3957 15.432 56.7937 16.0247 56.0284 16.454C55.2631 16.8833 54.4231 17.098 53.5084 17.098ZM53.5084 15.348C54.0964 15.348 54.6144 15.2173 55.0624 14.956C55.5104 14.6853 55.8604 14.3027 56.1124 13.808C56.3644 13.3133 56.4904 12.7393 56.4904 12.086C56.4904 11.4327 56.3644 10.8633 56.1124 10.378C55.8604 9.88333 55.5104 9.50533 55.0624 9.244C54.6144 8.98267 54.0964 8.852 53.5084 8.852C52.9204 8.852 52.3977 8.98267 51.9404 9.244C51.4924 9.50533 51.1424 9.88333 50.8904 10.378C50.6384 10.8633 50.5124 11.4327 50.5124 12.086C50.5124 12.7393 50.6384 13.3133 50.8904 13.808C51.1424 14.3027 51.4924 14.6853 51.9404 14.956C52.3977 15.2173 52.9204 15.348 53.5084 15.348ZM66.8106 10.252C66.8106 10.7747 66.6846 11.2647 66.4326 11.722C66.1899 12.1793 65.8026 12.548 65.2706 12.828C64.7479 13.108 64.0853 13.248 63.2826 13.248H61.6446V17H59.6846V7.228H63.2826C64.0386 7.228 64.6826 7.35867 65.2146 7.62C65.7466 7.88133 66.1433 8.24067 66.4046 8.698C66.6753 9.15533 66.8106 9.67333 66.8106 10.252ZM63.1986 11.666C63.7399 11.666 64.1413 11.5447 64.4026 11.302C64.6639 11.05 64.7946 10.7 64.7946 10.252C64.7946 9.3 64.2626 8.824 63.1986 8.824H61.6446V11.666H63.1986Z" fill="#FF5B59"/>
<path d="M14.7 22.75H9.30001C4.36001 22.75 2.26001 20.64 2.26001 15.71V11.22C2.26001 10.81 2.60001 10.47 3.01001 10.47C3.42001 10.47 3.76001 10.81 3.76001 11.22V15.71C3.76001 19.8 5.21001 21.25 9.30001 21.25H14.69C18.78 21.25 20.23 19.8 20.23 15.71V11.22C20.23 10.81 20.57 10.47 20.98 10.47C21.39 10.47 21.73 10.81 21.73 11.22V15.71C21.74 20.64 19.63 22.75 14.7 22.75Z" fill="#FF5B59"/>
<path d="M12 12.75C10.9 12.75 9.9 12.32 9.19 11.53C8.48 10.74 8.15 9.71 8.26 8.61L8.93 1.93C8.97 1.55 9.29 1.25 9.68 1.25H14.35C14.74 1.25 15.06 1.54 15.1 1.93L15.77 8.61C15.88 9.71 15.55 10.74 14.84 11.53C14.1 12.32 13.1 12.75 12 12.75ZM10.35 2.75L9.75 8.76C9.68 9.43 9.88 10.06 10.3 10.52C11.15 11.46 12.85 11.46 13.7 10.52C14.12 10.05 14.32 9.42 14.25 8.76L13.65 2.75H10.35Z" fill="#FF5B59"/>
<path d="M18.31 12.75C16.28 12.75 14.47 11.11 14.26 9.09L13.56 2.08C13.54 1.87 13.61 1.66 13.75 1.5C13.89 1.34 14.09 1.25 14.31 1.25H17.36C20.3 1.25 21.67 2.48 22.08 5.5L22.36 8.28C22.48 9.46 22.12 10.58 21.35 11.43C20.58 12.28 19.5 12.75 18.31 12.75ZM15.14 2.75L15.76 8.94C15.89 10.19 17.05 11.25 18.31 11.25C19.07 11.25 19.75 10.96 20.24 10.43C20.72 9.9 20.94 9.19 20.87 8.43L20.59 5.68C20.28 3.42 19.55 2.75 17.36 2.75H15.14V2.75Z" fill="#FF5B59"/>
<path d="M5.64002 12.75C4.45002 12.75 3.37002 12.28 2.60002 11.43C1.83002 10.58 1.47002 9.46 1.59002 8.28L1.86002 5.53C2.28002 2.48 3.65002 1.25 6.59002 1.25H9.64002C9.85002 1.25 10.05 1.34 10.2 1.5C10.35 1.66 10.41 1.87 10.39 2.08L9.69002 9.09C9.48002 11.11 7.67002 12.75 5.64002 12.75ZM6.59002 2.75C4.40002 2.75 3.67002 3.41 3.35002 5.7L3.08002 8.43C3.00002 9.19 3.23002 9.9 3.71002 10.43C4.19002 10.96 4.87002 11.25 5.64002 11.25C6.90002 11.25 8.07002 10.19 8.19002 8.94L8.81002 2.75H6.59002V2.75Z" fill="#FF5B59"/>
<path d="M14.5 22.75H9.5C9.09 22.75 8.75 22.41 8.75 22V19.5C8.75 17.4 9.9 16.25 12 16.25C14.1 16.25 15.25 17.4 15.25 19.5V22C15.25 22.41 14.91 22.75 14.5 22.75ZM10.25 21.25H13.75V19.5C13.75 18.24 13.26 17.75 12 17.75C10.74 17.75 10.25 18.24 10.25 19.5V21.25Z" fill="#FF5B59"/>
</svg>
