<svg width="165" height="66" viewBox="0 0 165 66" fill="none" xmlns="http://www.w3.org/2000/svg">
<path d="M43.14 35.96C43.14 31.04 35.98 32.6 35.98 29.8C35.98 28.66 36.8 28.12 37.9 28.16C39.1 28.18 39.84 28.9 39.9 29.82H42.98C42.8 27.3 40.84 25.84 37.98 25.84C35.1 25.84 33.06 27.36 33.06 29.88C33.04 34.94 40.24 33.12 40.24 36.14C40.24 37.14 39.46 37.84 38.14 37.84C36.84 37.84 36.1 37.1 36.02 35.98H33.02C33.06 38.62 35.3 40.14 38.2 40.14C41.38 40.14 43.14 38.16 43.14 35.96ZM45.5675 40H48.3675V33.88C48.3675 32.1 49.3475 31.14 50.8675 31.14C52.3475 31.14 53.3275 32.1 53.3275 33.88V40H56.1275V33.5C56.1275 30.44 54.3075 28.76 51.8075 28.76C50.3275 28.76 49.0875 29.36 48.3675 30.3V25.2H45.5675V40ZM69.4902 34.46C69.4902 30.96 66.9902 28.74 63.7902 28.74C60.5902 28.74 58.0902 30.96 58.0902 34.46C58.0902 37.94 60.5102 40.18 63.7102 40.18C66.9302 40.18 69.4902 37.94 69.4902 34.46ZM60.9302 34.46C60.9302 32.24 62.2702 31.18 63.7502 31.18C65.2302 31.18 66.6102 32.24 66.6102 34.46C66.6102 36.66 65.1902 37.74 63.7102 37.74C62.2102 37.74 60.9302 36.66 60.9302 34.46ZM74.3441 30.52V28.92H71.5441V45.28H74.3441V38.42C75.0241 39.32 76.2641 40.18 78.0041 40.18C80.8441 40.18 83.0641 37.88 83.0641 34.42C83.0641 30.96 80.8441 28.74 78.0041 28.74C76.2841 28.74 75.0041 29.58 74.3441 30.52ZM80.2041 34.42C80.2041 36.52 78.7841 37.72 77.2641 37.72C75.7641 37.72 74.3441 36.56 74.3441 34.46C74.3441 32.36 75.7641 31.2 77.2641 31.2C78.7841 31.2 80.2041 32.32 80.2041 34.42ZM99.0044 26.02V35.62L92.6644 26.02H89.8644V40H92.6644V30.42L99.0044 40H101.804V26.02H99.0044ZM115.271 34.46C115.271 30.96 112.771 28.74 109.571 28.74C106.371 28.74 103.871 30.96 103.871 34.46C103.871 37.94 106.291 40.18 109.491 40.18C112.711 40.18 115.271 37.94 115.271 34.46ZM106.711 34.46C106.711 32.24 108.051 31.18 109.531 31.18C111.011 31.18 112.391 32.24 112.391 34.46C112.391 36.66 110.971 37.74 109.491 37.74C107.991 37.74 106.711 36.66 106.711 34.46ZM119.345 40H122.385L124.405 32.26L126.425 40H129.445L132.685 28.92H130.005L128.045 37.34L125.965 28.92H123.005L120.885 37.36L118.925 28.92H116.085L119.345 40Z" fill="url(#paint0_linear_18_1980)"/>
<rect x="1" y="1" width="163" height="64" rx="32" stroke="url(#paint1_linear_18_1980)" stroke-width="2"/>
<defs>
<linearGradient id="paint0_linear_18_1980" x1="82.5" y1="10.0313" x2="82.5" y2="48" gradientUnits="userSpaceOnUse">
<stop offset="0.046875" stop-color="#FF5B59"/>
<stop offset="0.713542" stop-color="#BC3139"/>
</linearGradient>
<linearGradient id="paint1_linear_18_1980" x1="82.5" y1="-17.5312" x2="82.5" y2="66" gradientUnits="userSpaceOnUse">
<stop offset="0.046875" stop-color="#FF5B59"/>
<stop offset="0.713542" stop-color="#BC3139"/>
</linearGradient>
</defs>
</svg>
