<svg width="350" height="72" viewBox="0 0 350 72" fill="none" xmlns="http://www.w3.org/2000/svg">
<rect width="350" height="72" rx="36" fill="url(#paint0_linear_3_662)"/>
<path d="M116.928 40.808H110.256L109.152 44H105.624L111.648 27.224H115.56L121.584 44H118.032L116.928 40.808ZM116.016 38.12L113.592 31.112L111.168 38.12H116.016ZM122.972 37.304C122.972 35.96 123.236 34.768 123.764 33.728C124.308 32.688 125.044 31.888 125.972 31.328C126.9 30.768 127.932 30.488 129.068 30.488C129.932 30.488 130.756 30.68 131.54 31.064C132.324 31.432 132.948 31.928 133.412 32.552V26.24H136.82V44H133.412V42.032C132.996 42.688 132.412 43.216 131.66 43.616C130.908 44.016 130.036 44.216 129.044 44.216C127.924 44.216 126.9 43.928 125.972 43.352C125.044 42.776 124.308 41.968 123.764 40.928C123.236 39.872 122.972 38.664 122.972 37.304ZM133.436 37.352C133.436 36.536 133.276 35.84 132.956 35.264C132.636 34.672 132.204 34.224 131.66 33.92C131.116 33.6 130.532 33.44 129.908 33.44C129.284 33.44 128.708 33.592 128.18 33.896C127.652 34.2 127.22 34.648 126.884 35.24C126.564 35.816 126.404 36.504 126.404 37.304C126.404 38.104 126.564 38.808 126.884 39.416C127.22 40.008 127.652 40.464 128.18 40.784C128.724 41.104 129.3 41.264 129.908 41.264C130.532 41.264 131.116 41.112 131.66 40.808C132.204 40.488 132.636 40.04 132.956 39.464C133.276 38.872 133.436 38.168 133.436 37.352ZM139.237 37.304C139.237 35.96 139.501 34.768 140.029 33.728C140.573 32.688 141.309 31.888 142.237 31.328C143.165 30.768 144.197 30.488 145.333 30.488C146.197 30.488 147.021 30.68 147.805 31.064C148.589 31.432 149.213 31.928 149.677 32.552V26.24H153.085V44H149.677V42.032C149.261 42.688 148.677 43.216 147.925 43.616C147.173 44.016 146.301 44.216 145.309 44.216C144.189 44.216 143.165 43.928 142.237 43.352C141.309 42.776 140.573 41.968 140.029 40.928C139.501 39.872 139.237 38.664 139.237 37.304ZM149.701 37.352C149.701 36.536 149.541 35.84 149.221 35.264C148.901 34.672 148.469 34.224 147.925 33.92C147.381 33.6 146.797 33.44 146.173 33.44C145.549 33.44 144.973 33.592 144.445 33.896C143.917 34.2 143.485 34.648 143.149 35.24C142.829 35.816 142.669 36.504 142.669 37.304C142.669 38.104 142.829 38.808 143.149 39.416C143.485 40.008 143.917 40.464 144.445 40.784C144.989 41.104 145.565 41.264 146.173 41.264C146.797 41.264 147.381 41.112 147.925 40.808C148.469 40.488 148.901 40.04 149.221 39.464C149.541 38.872 149.701 38.168 149.701 37.352ZM165.998 33.464V39.896C165.998 40.344 166.102 40.672 166.31 40.88C166.534 41.072 166.902 41.168 167.414 41.168H168.974V44H166.862C164.03 44 162.614 42.624 162.614 39.872V33.464H161.03V30.704H162.614V27.416H165.998V30.704H168.974V33.464H165.998ZM177.294 44.216C176.014 44.216 174.862 43.936 173.838 43.376C172.814 42.8 172.006 41.992 171.414 40.952C170.838 39.912 170.55 38.712 170.55 37.352C170.55 35.992 170.846 34.792 171.438 33.752C172.046 32.712 172.87 31.912 173.91 31.352C174.95 30.776 176.11 30.488 177.39 30.488C178.67 30.488 179.83 30.776 180.87 31.352C181.91 31.912 182.726 32.712 183.318 33.752C183.926 34.792 184.23 35.992 184.23 37.352C184.23 38.712 183.918 39.912 183.294 40.952C182.686 41.992 181.854 42.8 180.798 43.376C179.758 43.936 178.59 44.216 177.294 44.216ZM177.294 41.288C177.902 41.288 178.47 41.144 178.998 40.856C179.542 40.552 179.974 40.104 180.294 39.512C180.614 38.92 180.774 38.2 180.774 37.352C180.774 36.088 180.438 35.12 179.766 34.448C179.11 33.76 178.302 33.416 177.342 33.416C176.382 33.416 175.574 33.76 174.918 34.448C174.278 35.12 173.958 36.088 173.958 37.352C173.958 38.616 174.27 39.592 174.894 40.28C175.534 40.952 176.334 41.288 177.294 41.288ZM191.598 35.6C191.598 33.952 191.966 32.48 192.702 31.184C193.454 29.872 194.47 28.856 195.75 28.136C197.046 27.4 198.494 27.032 200.094 27.032C201.966 27.032 203.606 27.512 205.014 28.472C206.422 29.432 207.406 30.76 207.966 32.456H204.102C203.718 31.656 203.174 31.056 202.47 30.656C201.782 30.256 200.982 30.056 200.07 30.056C199.094 30.056 198.222 30.288 197.454 30.752C196.702 31.2 196.11 31.84 195.678 32.672C195.262 33.504 195.054 34.48 195.054 35.6C195.054 36.704 195.262 37.68 195.678 38.528C196.11 39.36 196.702 40.008 197.454 40.472C198.222 40.92 199.094 41.144 200.07 41.144C200.982 41.144 201.782 40.944 202.47 40.544C203.174 40.128 203.718 39.52 204.102 38.72H207.966C207.406 40.432 206.422 41.768 205.014 42.728C203.622 43.672 201.982 44.144 200.094 44.144C198.494 44.144 197.046 43.784 195.75 43.064C194.47 42.328 193.454 41.312 192.702 40.016C191.966 38.72 191.598 37.248 191.598 35.6ZM209.972 37.304C209.972 35.96 210.236 34.768 210.764 33.728C211.308 32.688 212.036 31.888 212.948 31.328C213.876 30.768 214.908 30.488 216.044 30.488C217.036 30.488 217.9 30.688 218.636 31.088C219.388 31.488 219.988 31.992 220.436 32.6V30.704H223.82V44H220.436V42.056C220.004 42.68 219.404 43.2 218.636 43.616C217.884 44.016 217.012 44.216 216.02 44.216C214.9 44.216 213.876 43.928 212.948 43.352C212.036 42.776 211.308 41.968 210.764 40.928C210.236 39.872 209.972 38.664 209.972 37.304ZM220.436 37.352C220.436 36.536 220.276 35.84 219.956 35.264C219.636 34.672 219.204 34.224 218.66 33.92C218.116 33.6 217.532 33.44 216.908 33.44C216.284 33.44 215.708 33.592 215.18 33.896C214.652 34.2 214.22 34.648 213.884 35.24C213.564 35.816 213.404 36.504 213.404 37.304C213.404 38.104 213.564 38.808 213.884 39.416C214.22 40.008 214.652 40.464 215.18 40.784C215.724 41.104 216.3 41.264 216.908 41.264C217.532 41.264 218.116 41.112 218.66 40.808C219.204 40.488 219.636 40.04 219.956 39.464C220.276 38.872 220.436 38.168 220.436 37.352ZM230.461 32.768C230.893 32.064 231.453 31.512 232.141 31.112C232.845 30.712 233.645 30.512 234.541 30.512V34.04H233.653C232.597 34.04 231.797 34.288 231.253 34.784C230.725 35.28 230.461 36.144 230.461 37.376V44H227.101V30.704H230.461V32.768ZM240.716 33.464V39.896C240.716 40.344 240.82 40.672 241.028 40.88C241.252 41.072 241.62 41.168 242.132 41.168H243.692V44H241.58C238.748 44 237.332 42.624 237.332 39.872V33.464H235.748V30.704H237.332V27.416H240.716V30.704H243.692V33.464H240.716Z" fill="#EAEAEA"/>
<defs>
<linearGradient id="paint0_linear_3_662" x1="175" y1="-19.125" x2="175" y2="72" gradientUnits="userSpaceOnUse">
<stop offset="0.046875" stop-color="#FF5B59"/>
<stop offset="0.713542" stop-color="#BC3139"/>
</linearGradient>
</defs>
</svg>
