<svg width="32" height="32" viewBox="0 0 32 32" fill="none" xmlns="http://www.w3.org/2000/svg">
<path d="M16.0002 30.3332C15.1069 30.3332 14.2002 30.1065 13.4002 29.6399L5.48019 25.0665C3.88019 24.1332 2.88019 22.4132 2.88019 20.5599V11.4399C2.88019 9.58658 3.88019 7.86657 5.48019 6.93324L13.4002 2.35991C15.0002 1.42658 16.9869 1.42658 18.6002 2.35991L26.5202 6.93324C28.1202 7.86657 29.1202 9.58658 29.1202 11.4399V20.5599C29.1202 22.4132 28.1202 24.1332 26.5202 25.0665L18.6002 29.6399C17.8002 30.1065 16.8935 30.3332 16.0002 30.3332ZM16.0002 3.66655C15.4535 3.66655 14.8935 3.81323 14.4002 4.09323L6.48019 8.66655C5.49352 9.23989 4.88019 10.2932 4.88019 11.4399V20.5599C4.88019 21.6932 5.49352 22.7599 6.48019 23.3332L14.4002 27.9065C15.3869 28.4799 16.6135 28.4799 17.6002 27.9065L25.5202 23.3332C26.5069 22.7599 27.1202 21.7065 27.1202 20.5599V11.4399C27.1202 10.3066 26.5069 9.23989 25.5202 8.66655L17.6002 4.09323C17.1069 3.81323 16.5469 3.66655 16.0002 3.66655Z" fill="#B2B9C1"/>
<path d="M15.9999 15.6667C13.7332 15.6667 11.8932 13.8266 11.8932 11.56C11.8932 9.29331 13.7332 7.45337 15.9999 7.45337C18.2666 7.45337 20.1066 9.29331 20.1066 11.56C20.1066 13.8266 18.2666 15.6667 15.9999 15.6667ZM15.9999 9.45337C14.8399 9.45337 13.8932 10.4 13.8932 11.56C13.8932 12.72 14.8399 13.6667 15.9999 13.6667C17.1599 13.6667 18.1066 12.72 18.1066 11.56C18.1066 10.4 17.1599 9.45337 15.9999 9.45337Z" fill="#B2B9C1"/>
<path d="M21.3334 23.2135C20.7867 23.2135 20.3334 22.7602 20.3334 22.2135C20.3334 20.3735 18.3867 18.8669 16 18.8669C13.6134 18.8669 11.6667 20.3735 11.6667 22.2135C11.6667 22.7602 11.2134 23.2135 10.6667 23.2135C10.12 23.2135 9.66669 22.7602 9.66669 22.2135C9.66669 19.2669 12.5067 16.8669 16 16.8669C19.4934 16.8669 22.3334 19.2669 22.3334 22.2135C22.3334 22.7602 21.88 23.2135 21.3334 23.2135Z" fill="#B2B9C1"/>
</svg>
